<svg id="Dribbble" xmlns="http://www.w3.org/2000/svg" xmlns:xlink="http://www.w3.org/1999/xlink" width="106" height="106" viewBox="0 0 106 106">
  <defs>
    <style>
      .cls-1 {
        fill: #fff;
        stroke: #1abc9c;
        stroke-linejoin: round;
        stroke-opacity: 0.59;
        stroke-width: 6px;
        filter: url(#filter);
      }

      .cls-2 {
        fill: #1abc9c;
        fill-rule: evenodd;
      }
    </style>
    <filter id="filter" x="3" y="3" width="100" height="100" filterUnits="userSpaceOnUse">
      <feFlood result="flood" flood-color="#f6f6f6"/>
      <feComposite result="composite" operator="in" in2="SourceGraphic"/>
      <feBlend result="blend" in2="SourceGraphic"/>
    </filter>
  </defs>
  <g style="fill: #fff; filter: url(#filter)">
    <rect id="Form" class="cls-1" x="3" y="3" width="100" height="100" style="stroke: inherit; filter: none; fill: inherit"/>
  </g>
  <use xlink:href="#Form" style="stroke: #1abc9c; filter: none; fill: none"/>
  <path id="dribbble-2" data-name="dribbble" class="cls-2" d="M600,2944a19,19,0,1,1-19,19A19,19,0,0,1,600,2944Zm0,3.8a15.2,15.2,0,1,1-15.2,15.2A15.2,15.2,0,0,1,600,2947.8Zm-7.6,0s11.4,13.93,13.933,30.4l2.533-2.53s-2.533-16.47-13.933-29.14Zm17.733,2.53A32.6,32.6,0,0,1,600,2956.67a38.655,38.655,0,0,1-17.734,2.53v2.53s12.667,3.8,31.667-10.13Zm-22.8,24.07s7.6-17.73,29.133-11.4v2.53s-17.733-6.33-26.6,10.14Z" transform="translate(-547 -2910)"/>
</svg>
