<svg id="Twitter" xmlns="http://www.w3.org/2000/svg" xmlns:xlink="http://www.w3.org/1999/xlink" width="106" height="106" viewBox="0 0 106 106">
  <defs>
    <style>
      .cls-1 {
        fill: #fff;
        stroke: #1abc9c;
        stroke-linejoin: round;
        stroke-opacity: 0.59;
        stroke-width: 6px;
        filter: url(#filter);
      }

      .cls-2 {
        fill: #1abc9c;
        fill-rule: evenodd;
      }
    </style>
    <filter id="filter" x="3" y="3" width="100" height="100" filterUnits="userSpaceOnUse">
      <feFlood result="flood" flood-color="#f6f6f6"/>
      <feComposite result="composite" operator="in" in2="SourceGraphic"/>
      <feBlend result="blend" in2="SourceGraphic"/>
    </filter>
  </defs>
  <g style="fill: #fff; filter: url(#filter)">
    <rect id="Form" class="cls-1" x="3" y="3" width="100" height="100" style="stroke: inherit; filter: none; fill: inherit"/>
  </g>
  <use xlink:href="#Form" style="stroke: #1abc9c; filter: none; fill: none"/>
  <path id="twitter-2" data-name="twitter" class="cls-2" d="M284,2947.49l-4.5,4.49v0.75a9.619,9.619,0,0,1-.324,2.36A26.361,26.361,0,0,1,269,2975.92c-15.932,12.72-33,1.5-33,1.5,13.5,0,13.5-4.49,13.5-4.49-3,0-9-5.99-9-5.99,1.5,1.5,4.5,0,4.5,0-7.5-4.49-7.5-8.98-7.5-8.98,1.5,1.5,4.5,0,4.5,0a10.31,10.31,0,0,1-3-13.46c1.5,7.48,21,10.47,21,10.47l0.248-.12a17.774,17.774,0,0,1-.248-2.87c0-5.37,4.365-8.98,9.75-8.98a9.7,9.7,0,0,1,7.374,3.43l0.876-.44,4.5-2.99-3,5.99Z" transform="translate(-207 -2910)"/>
</svg>
